# Blender v2.92.0 OBJ File: ''
# www.blender.org
mtllib cube.mtl
o Cube.002_Cube.006
v -0.500000 -0.500000 0.500000
v -0.500000 0.500000 0.500000
v -0.500000 -0.500000 -0.500000
v -0.500000 0.500000 -0.500000
v 0.500000 -0.500000 0.500000
v 0.500000 0.500000 0.500000
v 0.500000 -0.500000 -0.500000
v 0.500000 0.500000 -0.500000
v -0.500000 0.186881 0.500000
v -0.500000 0.186881 -0.500000
v 0.500000 0.186881 -0.500000
v 0.500000 0.186881 0.500000
vt 0.500000 0.001707
vt 0.500000 0.250854
vt 0.665256 0.250854
vt 0.665256 0.001707
vt 0.500000 0.500000
vt 0.665256 0.500000
vt 0.500000 0.749146
vt 0.665256 0.749146
vt 0.500000 0.998293
vt 0.665256 0.998293
vt 0.004231 0.500000
vt 0.004231 0.749146
vt 0.334744 0.749146
vt 0.334744 0.500000
vt 0.995769 0.749146
vt 0.995769 0.500000
vt 0.334744 0.998293
vt 0.334744 0.250854
vt 0.334744 0.001707
vn 1.0000 0.0000 0.0000
vn 0.0000 0.0000 1.0000
vn -1.0000 0.0000 0.0000
vn 0.0000 0.0000 -1.0000
vn 0.0000 1.0000 0.0000
vn 0.0000 -1.0000 0.0000
usemtl Material.002
s off
f 9/1/1 10/2/1 4/3/1 2/4/1
f 10/2/2 11/5/2 8/6/2 4/3/2
f 11/5/3 12/7/3 6/8/3 8/6/3
f 12/7/4 9/9/4 2/10/4 6/8/4
f 3/11/5 1/12/5 5/13/5 7/14/5
f 8/6/6 6/8/6 2/15/6 4/16/6
f 5/13/4 1/17/4 9/9/4 12/7/4
f 7/14/3 5/13/3 12/7/3 11/5/3
f 3/18/2 7/14/2 11/5/2 10/2/2
f 1/19/1 3/18/1 10/2/1 9/1/1
